<?xml version="1.0" encoding="iso-8859-1"?>
<!-- Generator: Adobe Illustrator 19.0.0, SVG Export Plug-In . SVG Version: 6.00 Build 0)  -->
<svg version="1.1" id="Layer_1" xmlns="http://www.w3.org/2000/svg" xmlns:xlink="http://www.w3.org/1999/xlink" x="0px" y="0px"
	 viewBox="0 0 420 420" style="enable-background:new 0 0 420 420;" xml:space="preserve">
<g>
	<g>
		<g>
			<path d="M370,172.5h-90c-11.246,0-21.638,3.733-30,10.023V182.5c0-27.57-22.43-50-50-50h-50c-11.64,0-22.362,3.998-30.869,10.692
				C114.757,120.055,94.39,102.5,70,102.5H50c-27.57,0-50,22.43-50,50v75c0,5.523,4.477,10,10,10h90v65c0,5.523,4.477,10,10,10h120
				v90c0,5.523,4.477,10,10,10h170c5.523,0,10-4.477,10-10v-180C420,194.93,397.57,172.5,370,172.5z M400,392.5H250v-90
				c0-5.523-4.477-10-10-10H120v-65c0-5.523-4.477-10-10-10H20v-65c0-16.542,13.458-30,30-30h20c16.542,0,30,13.458,30,30v50h20v-20
				c0-16.542,13.458-30,30-30h50c16.542,0,30,13.458,30,30v90h20v-50c0-16.542,13.458-30,30-30h90c16.542,0,30,13.458,30,30V392.5z"
				/>
			<path d="M330,157.5c38.598,0,70-31.402,70-70s-31.402-70-70-70c-38.598,0-70,31.402-70,70S291.402,157.5,330,157.5z M330,37.5
				c27.57,0,50,22.43,50,50s-22.43,50-50,50s-50-22.43-50-50S302.43,37.5,330,37.5z"/>
			<path d="M175,117.5c27.57,0,50-22.43,50-50s-22.43-50-50-50s-50,22.43-50,50S147.43,117.5,175,117.5z M175,37.5
				c16.542,0,30,13.458,30,30s-13.458,30-30,30s-30-13.458-30-30S158.458,37.5,175,37.5z"/>
			<path d="M60,87.5c22.056,0,40-17.944,40-40c0-22.056-17.944-40-40-40c-22.056,0-40,17.944-40,40C20,69.556,37.944,87.5,60,87.5z
				 M60,27.5c11.028,0,20,8.972,20,20s-8.972,20-20,20s-20-8.972-20-20S48.972,27.5,60,27.5z"/>
		</g>
	</g>
</g>
<g>
</g>
<g>
</g>
<g>
</g>
<g>
</g>
<g>
</g>
<g>
</g>
<g>
</g>
<g>
</g>
<g>
</g>
<g>
</g>
<g>
</g>
<g>
</g>
<g>
</g>
<g>
</g>
<g>
</g>
</svg>
